<?xml version="1.0" encoding="UTF-8"?>
<svg width="303" height="303" viewBox="0 0 303 303" fill="none" xmlns="http://www.w3.org/2000/svg">
<rect width="303" height="303" rx="68" fill="url(#paint0_linear_335_17)"/>
<path d="M260 138.5C260 194.557 214.557 240 158.5 240C102.443 240 57 194.557 57 138.5C57 82.4431 102.443 37 158.5 37C214.557 37 260 82.4431 260 138.5ZM73.422 138.5C73.422 185.487 111.513 223.578 158.5 223.578C205.487 223.578 243.578 185.487 243.578 138.5C243.578 91.5127 205.487 53.422 158.5 53.422C111.513 53.422 73.422 91.5127 73.422 138.5Z" fill="#33868A"/>
<path d="M152.5 147.5L234 63.5L241 61L246.5 62L251.5 65L253.5 68.5L255 73V78.5L253.5 83.5L209 131.5L163 178.5L159 181L154.5 182.5L150 182L145.5 180L133.5 169.5L102 136.5L101 131.5V126L102 123.5L103 121.5L104 120.5L104.5 120L106 119L108.5 117.5L111 116.5L114.5 116L118 116.5L136 132.5L152.5 147.5Z" fill="white" stroke="white"/>
<rect x="94" y="254" width="125" height="13" rx="6.5" fill="#33868A"/>
<rect x="105" y="281" width="102" height="13" rx="6.5" fill="#33868A"/>
<defs>
<linearGradient id="paint0_linear_335_17" x1="151.5" y1="0" x2="151.5" y2="303" gradientUnits="userSpaceOnUse">
<stop stop-color="#85E8CE"/>
<stop offset="0.966346" stop-color="#32B9C8"/>
</linearGradient>
</defs>
</svg> 